<!--?xml version="1.0" encoding="utf-8"?-->
<!-- Svg Vector Icons : http://www.onlinewebfonts.com/icon -->

<svg version="1.1" xmlns="http://www.w3.org/2000/svg" xmlns:xlink="http://www.w3.org/1999/xlink" x="0px" y="0px" viewBox="0 0 256 256" enable-background="new 0 0 256 256" xml:space="preserve">
<metadata> Svg Vector Icons : http://www.onlinewebfonts.com/icon </metadata>
<g><g><path fill="#49B88F" data-title="Layer 0" xs="0" d="M87.7,67.3c0,4.1-3.3,7.4-7.4,7.4H64.4c-4.1,0-7.4-3.3-7.4-7.4V51.5c0-4.1,3.3-7.4,7.4-7.4h15.8c4.1,0,7.4,3.3,7.4,7.4V67.3z"/><path fill="#49B88F" data-title="Layer 1" xs="1" d="M132.6,67.3c0,4.1-3.3,7.4-7.4,7.4h-15.8c-4.1,0-7.4-3.3-7.4-7.4V51.5c0-4.1,3.3-7.4,7.4-7.4h15.8c4.1,0,7.4,3.3,7.4,7.4V67.3z"/><path fill="#49B88F" data-title="Layer 2" xs="2" d="M178.2,67.3c0,4.1-3.3,7.4-7.4,7.4h-15.8c-4.1,0-7.4-3.3-7.4-7.4V51.5c0-4.1,3.3-7.4,7.4-7.4h15.8c4.1,0,7.4,3.3,7.4,7.4V67.3z"/><path fill="#49B88F" data-title="Layer 3" xs="3" d="M87.7,113.6c0,4.1-3.3,7.4-7.4,7.4H64.4c-4.1,0-7.4-3.3-7.4-7.4V97.8c0-4.1,3.3-7.4,7.4-7.4h15.8c4.1,0,7.4,3.3,7.4,7.4V113.6z"/><path fill="#49B88F" data-title="Layer 4" xs="4" d="M132.6,113.6c0,4.1-3.3,7.4-7.4,7.4h-15.8c-4.1,0-7.4-3.3-7.4-7.4V97.8c0-4.1,3.3-7.4,7.4-7.4h15.8c4.1,0,7.4,3.3,7.4,7.4V113.6z"/><path fill="#49B88F" data-title="Layer 5" xs="5" d="M87.7,159.7c0,4.1-3.3,7.4-7.4,7.4H64.4c-4.1,0-7.4-3.3-7.4-7.4v-15.8c0-4.1,3.3-7.4,7.4-7.4h15.8c4.1,0,7.4,3.3,7.4,7.4V159.7z"/><path fill="#49B88F" data-title="Layer 6" xs="6" d="M132.6,159.7c0,4.1-3.3,7.4-7.4,7.4h-15.8c-4.1,0-7.4-3.3-7.4-7.4v-15.8c0-4.1,3.3-7.4,7.4-7.4h15.8c4.1,0,7.4,3.3,7.4,7.4V159.7z"/><path fill="#000000" data-title="Layer 7" xs="7" d="M215.5,88.8h-56.7c-8.2,0-15.1,6.8-15.1,15.1v127.1c0,8.3,6.9,15.1,15.1,15.1h56.7c8.2,0,15.1-6.8,15.1-15.1V103.8C230.6,95.6,223.8,88.8,215.5,88.8z M179.2,97h16.3c0.7,0,1.3,0.6,1.3,1.3c0,0.7-0.6,1.3-1.3,1.3h-16.3c-0.7,0-1.3-0.6-1.3-1.3C177.8,97.6,178.4,97,179.2,97z M187.1,240.1c-2.8,0-5.4-2.3-5.4-5.3s2.6-5.3,5.4-5.3c3,0,5.3,2.4,5.3,5.3C192.4,237.8,190.1,240.1,187.1,240.1z M219.4,224.2h-64.6V105h64.6V224.2z"/><path fill="#49B88F" data-title="Layer 8" xs="8" d="M174.4,212.6c0,1.9-1.5,3.3-3.3,3.3h-7.1c-1.9,0-3.3-1.5-3.3-3.3v-7.1c0-1.9,1.5-3.3,3.3-3.3h7.1c1.9,0,3.3,1.5,3.3,3.3V212.6z"/><path fill="#49B88F" data-title="Layer 9" xs="9" d="M195.1,212.6c0,1.9-1.5,3.3-3.3,3.3h-7.1c-1.9,0-3.3-1.5-3.3-3.3v-7.1c0-1.9,1.5-3.3,3.3-3.3h7.1c1.9,0,3.3,1.5,3.3,3.3V212.6z"/><path fill="#49B88F" data-title="Layer 10" xs="10" d="M206.1,161.5c0,4.9-4,8.9-8.9,8.9h-19.1c-4.9,0-8.9-4-8.9-8.9v-19.1c0-4.9,4-8.9,8.9-8.9h19.1c4.9,0,8.9,4,8.9,8.9V161.5z"/><path fill="#49B88F" data-title="Layer 11" xs="11" d="M214.6,212.6c0,1.9-1.5,3.3-3.3,3.3h-7.1c-1.9,0-3.3-1.5-3.3-3.3v-7.1c0-1.9,1.5-3.3,3.3-3.3h7.1c1.9,0,3.3,1.5,3.3,3.3V212.6z"/><path fill="#000000" data-title="Layer 12" xs="12" d="M136.3,202.9H44.4V29.6h145.4v45.1h19.5V29.4c0-10.7-8.7-19.4-19.4-19.4H44.7C34,10,25.4,18.7,25.4,29.4v193.5c0,10.7,8.6,19.4,19.4,19.4h91.6V202.9z M117.3,232.6c-5.3,0-9.7-4.3-9.7-9.7s4.3-9.7,9.7-9.7c5.3,0,9.7,4.3,9.7,9.7S122.7,232.6,117.3,232.6z"/></g></g>
</svg>