<!--?xml version="1.0" encoding="utf-8"?-->
<!-- Svg Vector Icons : http://www.onlinewebfonts.com/icon -->

<svg version="1.1" xmlns="http://www.w3.org/2000/svg" xmlns:xlink="http://www.w3.org/1999/xlink" x="0px" y="0px" viewBox="0 0 256 256" enable-background="new 0 0 256 256" xml:space="preserve">
<metadata> Svg Vector Icons : http://www.onlinewebfonts.com/icon </metadata>
<g><g><g><g><path fill="#000000" data-title="Layer 0" xs="0" d="M158,159.9c-0.3,0.5-0.8,1-0.8,1.5v47.8c0,7.9-6.6,14-14.5,14H42.8c-7.9,0-14.4-6.1-14.4-14V81.2c0-7.9,6.6-14.5,14.4-14.5h99.8c2.9,0,5.5,1,7.8,2.4l16-17.7c-2.8-1.7-6.1-2.5-9.6-2.5h-129c-9.9,0-17.9,7.9-17.9,17.9v156.5c0,10.4,8.3,18.8,18.6,18.8h128.2c10.4,0,18.7-8.4,18.7-18.8v-82.7l-15.5,17.3C159.4,158.7,158.8,159.3,158,159.9z"/><path fill="#49B88F" data-title="Layer 1" xs="1" d="M52.2,91.3c-5.1,0-9.2,3.9-9.2,9c0,5.1,4.1,8.9,9.2,8.9h62.4l16.3-17.9H52.2z"/><path fill="#49B88F" data-title="Layer 2" xs="2" d="M104.3,122.5c0.1-0.3,0.2-0.5,0.3-1H52.2c-5.1,0-9.2,4.1-9.2,9.2c0,5.1,4.1,9.2,9.2,9.2h47.1L104.3,122.5z"/><path fill="#49B88F" data-title="Layer 3" xs="3" d="M84,152.1H56.4h-4.2c-5.1,0-9.2,4.1-9.2,9.2c0,5.1,4.1,9.2,9.2,9.2h16.2h5.1H84c4.1,0,7.5-2.7,8.7-6.3c0.1-1,0.2-2,0.5-3c0-4.6-3.4-8.4-7.9-9C84.9,152.1,84.4,152.1,84,152.1z"/><path fill="#000000" data-title="Layer 4" xs="4" d="M182.4,49.7l-59.1,65.8l-4,4.5l32,28.7l4-4.5l59-65.8l4.8-5.3l-32-28.7L182.4,49.7z M179.1,79.4l-38.1,42.4c-0.5,0.5-1.1,0.8-1.9,0.9c-0.7,0-1.4-0.2-2-0.7l-1.9-1.7c-1.1-1-1.2-2.7-0.2-3.8l38.1-42.5c0.5-0.5,1.1-0.8,1.9-0.9c0.7,0,1.4,0.2,2,0.7l1.9,1.7C180.1,76.6,180.1,78.3,179.1,79.4z M190.2,59.3l1.9,1.7c1.1,1,1.2,2.7,0.2,3.8c0,0,0,0,0,0l-3.3,3.7c-0.1,0.1-0.3,0.3-0.4,0.4c-0.4,0.3-0.9,0.5-1.4,0.5c-0.7,0-1.4-0.2-2-0.7l-1.9-1.7c-0.5-0.5-0.8-1.1-0.9-1.9c0-0.7,0.2-1.4,0.7-2l3.3-3.7C187.4,58.4,189.1,58.3,190.2,59.3z"/><path fill="#000000" data-title="Layer 5" xs="5" d="M193.1 37.7L190.2 40.9 222.2 69.6 225.1 66.3 230 60.8 198.1 32.2 z"/><path fill="#000000" data-title="Layer 6" xs="6" d="M242.9,32.6l-18.1-16.3c-1.8-1.6-4.2-2.5-6.7-2.4c-2.5,0.1-4.8,1.3-6.4,3.1L201,29l32,28.7l10.7-11.9C247.1,41.9,246.7,36,242.9,32.6z M232.3,45.7l-19.4-17.4l5.6-6.2l19.4,17.4L232.3,45.7z"/><path fill="#000000" data-title="Layer 7" xs="7" d="M110.8,167.9l36.7-15l-31.9-28.7l-11,38.1c-0.5,1.7,0,3.6,1.3,4.7C107.2,168.3,109.1,168.6,110.8,167.9z M118.5,134.4L137,151l-14.4,5.9l-8.5-7.6L118.5,134.4z"/></g></g><g></g><g></g><g></g><g></g><g></g><g></g><g></g><g></g><g></g><g></g><g></g><g></g><g></g><g></g><g></g></g></g>
</svg>