<!--?xml version="1.0" encoding="utf-8"?-->
<!-- Svg Vector Icons : http://www.onlinewebfonts.com/icon -->

<svg version="1.1" xmlns="http://www.w3.org/2000/svg" xmlns:xlink="http://www.w3.org/1999/xlink" x="0px" y="0px" viewBox="0 0 256 256" enable-background="new 0 0 256 256" xml:space="preserve">
<metadata> Svg Vector Icons : http://www.onlinewebfonts.com/icon </metadata>
<g><g><g><path fill="#000000" data-title="Layer 0" xs="0" d="M11.9,23.5l-1.7,1.6L10,106.9c-0.1,81.3-0.1,81.8,0.8,83.3c1.8,3,0.2,2.9,42.9,2.9h38.8l-0.2,8.2c-0.1,7.8-0.2,8.3-1.4,10.7c-3,6-7.6,9.3-14.8,10.4c-3.7,0.6-4.3,0.8-5.4,2c-2.4,2.7-2.3,5.9,0.4,8.3l1.6,1.4H128h55.3l1.6-1.4c2.6-2.3,2.8-5.6,0.4-8.3c-1.1-1.2-1.8-1.5-5.4-2c-7.2-1.1-11.9-4.3-14.8-10.4c-1.2-2.5-1.3-2.9-1.4-10.8l-0.2-8.2h38.9c36.8,0,39,0,40.5-0.8c0.9-0.5,2-1.6,2.4-2.4c0.7-1.5,0.8-6.2,0.7-83.1l-0.1-81.6l-1.7-1.6l-1.8-1.6H128H13.6L11.9,23.5z M234.1,95.5v62H128H21.9v-62v-62H128h106.1V95.5z M234.1,175.3v5.8H128H21.9v-5.8v-5.8H128h106.1V175.3z M151.5,199.9c0,9.9,1.5,16.2,5.1,21.3l1,1.3H128H98.4l1-1.3c1.3-1.8,3.2-6,4-8.9c0.5-1.5,0.8-5.4,0.9-10.8l0.2-8.4H128h23.5V199.9z"/><path fill="#49B88F" data-title="Layer 1" xs="1" d="M54.9,39.9c-0.5,0.2-1.5,1-2.2,1.8l-1.2,1.5v52.2c0,41.6,0.1,52.4,0.6,53.3c0.3,0.6,1.2,1.5,1.9,2c1.3,0.8,3,0.9,73.9,0.9c66.4,0,72.7,0,73.9-0.7c3-1.8,2.8,2,2.8-55.5V43.1l-1.6-1.8l-1.6-1.7l-72.8-0.1C88.6,39.5,55.4,39.7,54.9,39.9z M193,60.2V69h-65H63v-8.8v-8.8h65h65V60.2z M104.4,110.3l-0.1,29.4H83.7H63.2l-0.1-29.4L63,81h20.8h20.8L104.4,110.3z M192.9,110.3l-0.1,29.4h-38.3h-38.3l-0.1-29.4L116,81h38.5H193L192.9,110.3z"/><path fill="#000000" data-title="Layer 2" xs="2" d="M71.7,56.9c-2.8,2.8-1.2,7.2,2.7,7.7c1.8,0.2,2.1,0.1,3.6-1.4c1.5-1.5,1.7-1.8,1.4-3.6C78.9,55.7,74.5,54.2,71.7,56.9z"/><path fill="#000000" data-title="Layer 3" xs="3" d="M89.2,56.9c-3.2,3.3-0.2,8.6,4.4,7.7c5.3-1,4.3-9-1.1-9C91,55.6,90.3,55.9,89.2,56.9z"/><path fill="#000000" data-title="Layer 4" xs="4" d="M107.1,56.8c-2.2,2.2-1.9,5.5,0.7,7.3c3.7,2.6,8.7-2,6.6-6.1c-0.9-1.8-2-2.4-4.3-2.4C108.8,55.6,108,55.9,107.1,56.8z"/><path fill="#000000" data-title="Layer 5" xs="5" d="M72.4,87.4c-3.1,1.4-4.3,5.3-2.5,8.2c1.7,2.7,2.5,2.9,13.8,2.9s12.2-0.2,13.8-2.9c1.8-3,0.6-6.8-2.5-8.2c-1.7-0.7-3.1-0.9-11.3-0.9S74,86.6,72.4,87.4z"/><path fill="#000000" data-title="Layer 6" xs="6" d="M72.2,105.1c-0.6,0.3-1.6,1.3-2.2,2.2c-1.6,2.4-1.2,5.2,1,7.2l1.7,1.5h11.1h11.1l1.7-1.5c2.2-2,2.6-4.8,1-7.2c-1.8-2.6-2.3-2.8-13.7-2.8C76.4,104.5,73,104.7,72.2,105.1z"/><path fill="#000000" data-title="Layer 7" xs="7" d="M72.3,122.7c-3.1,1.3-4.2,5.4-2.4,8.4c1.6,2.7,3,2.9,14.4,2.8c9.8-0.1,10.3-0.2,11.7-1.2c3-2.2,3-7.2,0-9.5c-1.2-0.9-2-1-11.8-1.1C76,122.1,73.5,122.1,72.3,122.7z"/><path fill="#000000" data-title="Layer 8" xs="8" d="M125.7,87.3c-0.9,0.5-2.1,1.5-2.6,2.4c-1,1.5-1.1,1.9-1.1,11.4c0,10.7,0.2,12.1,2.5,13.9c1.2,1,1.7,1,12.1,1c15.6,0,14.9,0.6,14.9-14.5c0-15.3,0.6-14.7-14.1-14.9C128.5,86.5,127.1,86.5,125.7,87.3z M139.9,101.3l-0.1,2.9l-2.9,0.1l-2.9,0.1v-3v-3h3h3L139.9,101.3z"/><path fill="#000000" data-title="Layer 9" xs="9" d="M160.9,87.4c-3.3,1.5-3.5,2.5-3.3,14.8l0.1,10.7l1.7,1.6l1.8,1.6h11.1h11.1l1.8-1.6l1.7-1.6l0.1-10.7c0.2-15.9,0.4-15.7-14.7-15.7C164.1,86.5,162.6,86.6,160.9,87.4z M175,101.5v3h-2.8h-2.8v-3v-3h2.8h2.8V101.5z"/><path fill="#000000" data-title="Layer 10" xs="10" d="M125.3,122.8c-1.8,0.9-3.3,3.4-3.3,5.2s1.5,4.2,3.3,5.2c1.5,0.8,3.1,0.8,29.7,0.7l28.1-0.1l1.5-1.1c3-2.2,3-7.2,0-9.5c-1.3-1-1.7-1-29.5-1.1C128.4,122,126.8,122.1,125.3,122.8z"/></g></g></g>
</svg>